# xmcd
#
# Track frame offsets:
#	150
#	18466
#	32925
#	49962
#	66673
#	86544
#	99095
#	118654
#	129921
#	145299
#	157278
#	172651
#	190595
#	210481
#
# Disc length: 3055 seconds
#
# Revision: 1
# Processed by: cddbd v1.5.1PL2 Copyright (c) Steve Scherf et al.
# Submitted via: audiograbber 1.83.01
#
DISCID=bf0bed0e
DTITLE=Jasmine Trias - Jasmine Trias
DYEAR=2005
DGENRE=
TTITLE0=Excuses
TTITLE1=All I Need
TTITLE2=Sana Lagi
TTITLE3=DJ Don't Quit
TTITLE4=Once Again
TTITLE5=What U Do To Me
TTITLE6=Can't Hold Back
TTITLE7=Lose Control
TTITLE8=Don't Go
TTITLE9=Inseparable
TTITLE10=I Still Luv You
TTITLE11=Just A Fool
TTITLE12=Kung Paano
TTITLE13=If I Ever See Heaven Again
EXTD=
EXTT0=
EXTT1=
EXTT2=
EXTT3=
EXTT4=
EXTT5=
EXTT6=
EXTT7=
EXTT8=
EXTT9=
EXTT10=
EXTT11=
EXTT12=
EXTT13=
PLAYORDER=
